<svg width="512" height="512" viewBox="0 0 512 512" fill="none" xmlns="http://www.w3.org/2000/svg" 
>
<path d="M341.333 42.6667C345.985 42.4239 350.589 43.7104 354.441 46.3299C358.293 48.9494 361.182 52.7578 362.667 57.1733L378.027 106.667H426.667C443.641 106.667 459.919 113.41 471.922 125.412C483.924 137.414 490.667 153.693 490.667 170.667V405.333C490.667 422.307 483.924 438.586 471.922 450.588C459.919 462.591 443.641 469.333 426.667 469.333H85.3333C68.3595 469.333 52.0808 462.591 40.0785 450.588C28.0762 438.586 21.3333 422.307 21.3333 405.333V170.667C21.3333 153.693 28.0762 137.414 40.0785 125.412C52.0808 113.41 68.3595 106.667 85.3333 106.667H133.973L149.333 57.1733C150.818 52.7578 153.707 48.9494 157.559 46.3299C161.411 43.7104 166.015 42.4239 170.667 42.6667H341.333ZM325.973 85.3333H186.027L170.667 134.827C169.182 139.242 166.293 143.051 162.441 145.67C158.589 148.29 153.985 149.576 149.333 149.333H85.3333C79.6754 149.333 74.2492 151.581 70.2484 155.582C66.2476 159.583 64 165.009 64 170.667V405.333C64 410.991 66.2476 416.418 70.2484 420.418C74.2492 424.419 79.6754 426.667 85.3333 426.667H426.667C432.325 426.667 437.751 424.419 441.752 420.418C445.752 416.418 448 410.991 448 405.333V170.667C448 165.009 445.752 159.583 441.752 155.582C437.751 151.581 432.325 149.333 426.667 149.333H362.667C358.194 149.345 353.831 147.951 350.195 145.347C346.558 142.744 343.831 139.064 342.4 134.827L325.973 85.3333ZM256 192C261.658 192 267.084 194.248 271.085 198.248C275.086 202.249 277.333 207.675 277.333 213.333V266.667H330.667C336.325 266.667 341.751 268.914 345.752 272.915C349.752 276.916 352 282.342 352 288C352 293.658 349.752 299.084 345.752 303.085C341.751 307.086 336.325 309.333 330.667 309.333H277.333V362.667C277.333 368.325 275.086 373.751 271.085 377.752C267.084 381.752 261.658 384 256 384C250.342 384 244.916 381.752 240.915 377.752C236.914 373.751 234.667 368.325 234.667 362.667V309.333H181.333C175.675 309.333 170.249 307.086 166.248 303.085C162.248 299.084 160 293.658 160 288C160 282.342 162.248 276.916 166.248 272.915C170.249 268.914 175.675 266.667 181.333 266.667H234.667V213.333C234.667 207.675 236.914 202.249 240.915 198.248C244.916 194.248 250.342 192 256 192V192Z" fill="#ced4da"/>
</svg>
